<?xml version="1.0" encoding="UTF-8"?>
<svg width="700pt" height="700pt" version="1.1" viewBox="0 0 700 700" xmlns="http://www.w3.org/2000/svg">
 <path d="m490 35h-175v105c0 28.875-23.625 52.5-52.5 52.5h-105v280c0 28.875 23.625 52.5 52.5 52.5h280c28.875 0 52.5-23.625 52.5-52.5v-385c0-28.875-23.625-52.5-52.5-52.5zm-192.5 367.5h-52.5v-52.5h52.5zm14.176-127.23-37.102 35c-3.5 3.1484-7.6992 4.7266-12.074 4.7266s-8.9258-1.75-12.426-5.0742l-17.5-17.5c-6.8242-6.8242-6.8242-18.023 0-24.852 6.8242-6.8242 18.023-6.8242 24.852 0l5.4258 5.6016 24.852-23.449c7.1758-6.6484 18.199-6.3008 24.852 0.875 6.4766 7 6.125 18.023-0.875 24.676zm144.38 127.93h-106.05c-9.625 0-17.5-7.6992-17.5-17.5s7.875-17.5 17.5-17.5h106.05c9.8008 0 17.5 7.875 17.5 17.5s-7.6992 17.5-17.5 17.5zm0-87.5h-106.05c-9.625 0-17.5-7.6992-17.5-17.5s7.875-17.5 17.5-17.5h106.05c9.8008 0 17.5 7.875 17.5 17.5s-7.6992 17.5-17.5 17.5zm-287.35-158.2c1.3984-1.75 111.3-112.18 111.3-112.18v94.676c0 9.625-7.875 17.5-17.5 17.5z"/>
</svg>
